<svg width="354" height="354" viewBox="0 0 354 354" fill="none" xmlns="http://www.w3.org/2000/svg">
<g filter="url(#filter0_d_4_39)">
<path fill-rule="evenodd" clip-rule="evenodd" d="M170.965 16.1956C174.732 13.8594 162.886 33.0135 164.97 43.4359C166.897 53.0776 209.316 79.9138 186.185 101.61C189.468 89.9992 187.347 75.5148 179.267 71.1378C184.571 83.3475 175.916 98.5725 169.121 104.842C167.43 104.996 160.474 112.521 164.047 105.304V104.842C166.962 97.3979 175.13 89.8491 172.81 78.0633C171.422 71.01 165.523 67.5929 160.819 63.7507C141.28 47.7883 158.146 23.6872 170.965 16.1956ZM296.413 55.4401L300.564 55.9018C287.483 64.2151 275.191 70.6374 270.125 86.8356C267.487 95.2713 268.545 105.95 263.668 111.306C257.47 117.862 247.987 125.618 241.069 131.62C241.222 130.543 240.621 130.701 243.375 126.08C249.023 118.913 265.116 107.849 264.129 97.4547C259.945 107.257 240.044 113.995 226.31 115.923C222.713 115.917 212.064 119.532 222.159 112.691C222.379 112.421 222.536 112.105 222.62 111.767L252.138 95.6079C257.035 91.249 257.019 83.6693 259.978 77.1399C266.608 62.5142 285.887 57.4909 296.413 55.4401ZM60.2758 69.7527C78.8015 69.5681 100.94 73.914 105.935 87.2973C107.319 93.915 108.702 100.533 110.086 107.15C114.912 114.436 126.816 115.678 134.069 120.54C136.297 122.586 133.146 121.463 132.685 121.925C115.364 120.857 102.146 121.253 99.4784 109.921C100.474 125.162 109.26 129.17 119.771 134.852C89.5767 137.937 98.4637 107.691 91.6378 91.4526C86.1297 78.3487 59.4802 74.7853 47.362 73.4463L60.2758 69.7527ZM197.715 107.612C203.493 109.126 211.09 110.867 213.858 115.461C209.089 114.11 199.092 110.982 197.715 107.612ZM177.422 109.459C185.124 110.463 190.705 110.605 195.409 114.076C193.718 125.093 181.017 125.657 174.655 126.08C179.898 128.863 184.944 132.86 183.418 140.854C170.749 152.756 157.987 153.69 154.362 133.006C156.979 126.33 161.475 127.575 167.737 124.695C163.131 121.819 164.669 115.197 167.276 111.767L177.422 109.459ZM152.056 111.306L154.362 111.767L146.521 114.538L152.056 111.306ZM156.207 115.461L160.358 115.923C166.042 123.818 138.868 138.899 132.685 138.546L131.763 137.623C130.384 123.926 146.322 119.681 156.207 115.461ZM201.866 116.846C220.343 116.398 228.541 133.945 213.858 145.471C202.433 154.44 187.275 138.704 187.108 127.465C191.318 122.162 195.704 118.926 201.866 116.846ZM337 121.001C339.638 125.66 336.359 133.601 335.155 137.623C330.177 154.239 320.921 172.209 302.87 175.482H283.961L268.28 179.637C285.447 165.835 307.379 179.034 321.78 158.861L326.853 149.165C319.574 157.614 312.399 167.421 295.491 163.478C290.054 162.21 284.32 159.028 276.582 160.246C271.355 162.246 268.894 162.862 263.668 164.863C263.514 164.709 255.981 168.248 255.827 168.095C255.366 166.094 254.206 165.351 259.056 159.784C285.44 137.015 320.64 167.31 337 121.001ZM227.233 131.159C233.716 133.837 242.914 140.08 241.069 149.627H240.608C239.192 142.868 236.173 137.776 230 135.776C229.846 136.391 229.692 137.007 229.539 137.623C227.094 141.367 228.7 146.328 228.616 150.55H228.155L224.004 143.625L227.233 131.159ZM146.06 133.006C148.059 133.159 149.997 132.492 152.056 133.467C153.747 137.93 155.438 142.393 157.129 146.857L152.517 154.705C157.382 145.994 170.878 150.369 177.883 155.167L174.194 149.165C187.18 136.873 191.801 137.191 201.866 150.55C209.81 161.092 185.422 174.087 180.189 164.401C181.229 168.518 179.974 171.739 178.806 175.02C187.868 166.583 195.702 166.331 199.56 176.867C197.672 161.515 208.064 139.012 224.004 150.55C228.818 162.486 224.07 185.61 215.241 191.18C215.087 190.718 214.934 190.256 214.78 189.795L219.392 173.635L218.008 174.097L205.095 186.101L203.711 185.639L200.021 177.329H199.56V186.563C194.885 187.306 193.92 192.574 189.414 194.873V195.335C199.062 190.784 211.136 188.746 215.241 194.412C218.55 198.501 214.786 215.489 208.784 218.42C208.323 218.42 206.017 220.728 205.556 220.728C208.72 215.323 215.691 205.961 212.474 196.72C203.826 191.353 190.878 197.942 184.802 201.337C184.052 203.679 188.03 206.416 188.03 208.724C187.261 206.724 181.496 204.929 182.496 202.26C163.879 203.332 172.511 234.639 195.87 226.269C186.052 239.448 151.127 211.624 179.728 198.567C170.159 199.002 163.883 188.83 170.965 182.869C165.938 184.507 161.541 188.975 156.207 185.178C158.798 187.466 161.102 189.748 157.59 191.641C174.23 186.373 168.536 212.507 162.664 217.958L162.202 218.42C162.971 214.419 163.74 210.417 164.508 206.416C155.863 205.922 147.399 203.726 139.603 199.952L139.142 200.875C138.852 211.99 144.742 215.489 151.133 219.805C137.754 222.563 127.314 190.983 142.832 188.409C128.273 184.67 135.935 163.254 150.211 165.324L148.827 159.322C143.82 172.534 119.521 175.759 125.767 155.167C121.611 161.11 121.801 165.775 114.698 169.018H114.237L113.315 167.633C112.108 154.095 120.765 143.553 127.151 135.776L127.612 137.161C129.992 142.678 127.005 149.317 125.767 154.244C130.648 143.073 136.806 139.651 146.06 133.006ZM247.064 142.24C250.012 144.879 254.767 152.569 253.521 157.476L247.064 142.24ZM53.3577 149.165C74.1268 150.237 84.0187 169.144 106.396 160.246C108.334 161.569 109.196 165.848 105.474 168.095C94.5513 176.595 83.3181 168.38 74.5732 164.401C83.5243 175.764 89.936 180.71 105.474 186.101L103.629 187.024C78.142 186.13 73.0162 156.587 42.2888 160.246V160.707C46.8436 159.793 48.7457 161.939 51.9741 162.554C33.7772 167.494 30.0382 168.35 16 175.02C21.5594 160.632 39.1281 150.17 53.3577 149.165ZM231.845 155.167C241.202 153.631 249.344 164.72 243.836 174.558C242.02 167.66 242.604 157.109 233.228 158.861L227.233 180.099L226.31 179.175C226.572 172.333 228.007 158.081 231.845 155.167ZM121.155 168.556L125.306 169.018C137.693 177.431 136.95 188.259 130.379 205.031C113.779 205.483 110.244 172.454 121.155 168.556ZM109.625 174.558C111.235 177.513 111.604 186.978 108.702 188.871C107.642 183.311 109.317 179.329 109.625 174.558ZM252.138 176.405C254.205 179.418 253.99 187.219 252.138 190.256V176.405ZM258.595 185.178C261.961 189.602 258.36 200.095 255.366 201.799L258.595 185.178ZM231.383 186.101C236.717 185.732 238.282 185.716 243.836 188.871C246.313 192.393 247.689 198.45 243.836 201.337C243.657 201.345 243.479 201.32 243.309 201.263C244.897 193.43 241.764 193.405 241.069 189.795C228.168 186.807 227.116 194.161 221.237 200.414C222.659 192.824 226.07 189.698 231.383 186.101ZM120.233 188.409C120.737 196.3 122.656 201.467 128.996 203.646H129.457C129.611 201.953 129.764 200.26 129.918 198.567L120.233 188.409ZM117.927 204.569C123.742 211.412 139.188 208.052 140.987 220.267L139.142 219.805C135.694 215.578 131.901 212.692 123.922 212.88V213.341C126.505 221.426 132.666 228.461 139.603 232.271C128.933 234.066 119.571 214.301 117.927 204.569ZM111.009 206.416C113.673 209.832 111.899 212.783 110.086 216.111C106.499 222.697 101.566 229.862 94.4051 232.733C83.1111 237.26 67.3784 230.886 62.1206 249.815L62.5818 248.892C81.8363 233.525 89.2825 246.414 103.629 241.043L120.694 228.577L121.155 228.116L122.539 228.577L121.616 229.501C116.809 236.584 105.296 246.981 92.0991 245.198C87.0373 244.515 80.9623 242.972 75.4956 244.737C61.0285 249.408 53.5837 263.843 48.2844 277.979C46.1251 271.042 49.0302 261.75 50.5905 255.818C63.299 207.491 96.1923 235.678 111.009 206.416ZM240.608 206.416C242.95 214.624 231.116 226.107 222.62 223.96L219.392 218.882C221.895 220.586 223.361 222.418 225.849 221.652C233.133 219.831 238.358 213.341 240.608 206.416ZM257.211 209.648C264.022 213.272 289.047 220.775 292.724 225.807C305.604 243.437 296.198 267.406 332.849 265.975L331.004 266.898C327.683 269.325 320.535 269.664 315.784 269.669C277.201 269.706 292.829 251.194 274.737 240.12C266.842 235.288 249.444 237.026 244.297 229.501C253.915 232.132 270.624 233.316 278.426 238.735C287.58 245.091 287.561 258.134 299.181 262.743C299.027 262.435 298.873 262.127 298.72 261.82C288.587 253.58 285.782 242.382 281.194 230.424C277.907 221.858 263.852 226.312 253.06 212.418C250.449 208.654 250.668 208.045 257.211 209.648ZM160.819 223.499C170.366 223.226 175.283 227.515 179.267 232.733C169.832 229.052 161.82 221.826 149.75 229.039L154.362 240.12C150.438 237.537 147.243 233.943 146.983 227.654L148.366 225.345L160.819 223.499ZM204.633 226.73H205.556C203.115 232.006 196.153 234.499 191.72 237.811L193.564 241.505C203.175 245.582 212.279 238.458 218.931 235.041C214.86 242.992 189.112 251.317 189.414 235.503L204.633 226.73ZM235.073 233.656C235.8 236.488 230.543 242.869 225.849 241.505L226.31 241.043L235.073 233.656ZM181.112 239.196C185.644 247.815 164.42 251.1 161.28 245.66C171.162 243.259 175.552 246.331 181.112 239.196ZM136.836 241.043L143.293 245.198C141.698 254.705 143.639 265.768 140.065 272.9C133.062 286.872 110.04 293.167 119.771 320.455C124.719 286.211 134.769 296.246 150.211 278.902L160.358 254.894H161.28V255.356C155.477 276.467 154.454 277.339 150.672 283.058C136.507 301.313 114.165 297.539 125.306 338L123.922 337.538C115.179 326.572 104.321 302.656 116.082 286.29L130.379 271.515C134.935 264.069 136.399 252.257 136.836 241.043ZM183.879 251.201L192.642 252.586L191.258 253.047C187.605 254.726 180.13 254.19 176.961 252.586L183.879 251.201ZM202.789 254.894C206.814 256.922 207.552 263.347 210.629 266.437C226.888 282.758 233.315 286.468 224.926 314.915C248.217 284.725 217.974 275.42 222.159 255.818C226.924 265.052 232.153 273.824 236.918 283.058C243.418 304.03 216.935 333.174 203.711 338C203.865 337.538 204.018 337.077 204.172 336.615C214.405 327.852 223.778 298.866 214.78 283.981C209.842 275.813 198.789 267.878 199.099 256.279C199.128 251.279 199.488 253.034 202.789 254.894Z" fill="white"/>
</g>
<defs>
<filter id="filter0_d_4_39" x="0.5" y="0.5" width="353" height="353" filterUnits="userSpaceOnUse" color-interpolation-filters="sRGB">
<feFlood flood-opacity="0" result="BackgroundImageFix"/>
<feColorMatrix in="SourceAlpha" type="matrix" values="0 0 0 0 0 0 0 0 0 0 0 0 0 0 0 0 0 0 127 0" result="hardAlpha"/>
<feOffset/>
<feGaussianBlur stdDeviation="7.75"/>
<feComposite in2="hardAlpha" operator="out"/>
<feColorMatrix type="matrix" values="0 0 0 0 0 0 0 0 0 0 0 0 0 0 0 0 0 0 0.35 0"/>
<feBlend mode="normal" in2="BackgroundImageFix" result="effect1_dropShadow_4_39"/>
<feBlend mode="normal" in="SourceGraphic" in2="effect1_dropShadow_4_39" result="shape"/>
</filter>
</defs>
</svg>
